<mxfile host="app.diagrams.net" agent="Mozilla/5.0 (Windows NT 6.1; Win64; x64; rv:109.0) Gecko/20100101 Firefox/115.0" version="24.7.5">
  <diagram name="Page-1" id="YuE_GhEYr4UN-xfLbkZQ">
    <mxGraphModel dx="565" dy="427" grid="1" gridSize="10" guides="1" tooltips="1" connect="1" arrows="1" fold="1" page="1" pageScale="1" pageWidth="850" pageHeight="1100" math="1" shadow="0">
      <root>
        <mxCell id="0" />
        <mxCell id="1" parent="0" />
        <mxCell id="eS1aWTDM6hAk5lM-BrTF-1" value="" style="verticalLabelPosition=bottom;shadow=0;dashed=0;align=center;html=1;verticalAlign=top;shape=mxgraph.electrical.transistors.nmos;pointerEvents=1;direction=south;strokeWidth=2;" vertex="1" parent="1">
          <mxGeometry x="80" y="180" width="100" height="60" as="geometry" />
        </mxCell>
        <mxCell id="eS1aWTDM6hAk5lM-BrTF-2" value="" style="pointerEvents=1;verticalLabelPosition=bottom;shadow=0;dashed=0;align=center;html=1;verticalAlign=top;shape=mxgraph.electrical.resistors.resistor_1;direction=south;strokeWidth=2;" vertex="1" parent="1">
          <mxGeometry x="480" y="166" width="20" height="100" as="geometry" />
        </mxCell>
        <mxCell id="eS1aWTDM6hAk5lM-BrTF-3" value="" style="pointerEvents=1;verticalLabelPosition=bottom;shadow=0;dashed=0;align=center;html=1;verticalAlign=top;shape=mxgraph.electrical.capacitors.capacitor_1;direction=south;strokeWidth=2;" vertex="1" parent="1">
          <mxGeometry x="375" y="166" width="30" height="100" as="geometry" />
        </mxCell>
        <mxCell id="eS1aWTDM6hAk5lM-BrTF-4" value="" style="pointerEvents=1;verticalLabelPosition=bottom;shadow=0;dashed=0;align=center;html=1;verticalAlign=top;shape=mxgraph.electrical.resistors.resistor_1;direction=south;strokeWidth=2;" vertex="1" parent="1">
          <mxGeometry x="380" y="57" width="20" height="100" as="geometry" />
        </mxCell>
        <mxCell id="eS1aWTDM6hAk5lM-BrTF-5" value="" style="endArrow=none;html=1;rounded=0;strokeWidth=2;" edge="1" parent="1">
          <mxGeometry width="50" height="50" relative="1" as="geometry">
            <mxPoint x="80" y="280" as="sourcePoint" />
            <mxPoint x="180" y="280" as="targetPoint" />
          </mxGeometry>
        </mxCell>
        <mxCell id="eS1aWTDM6hAk5lM-BrTF-7" value="" style="endArrow=none;html=1;rounded=0;strokeWidth=2;" edge="1" parent="1">
          <mxGeometry width="50" height="50" relative="1" as="geometry">
            <mxPoint x="83" y="239.98" as="sourcePoint" />
            <mxPoint x="80" y="240" as="targetPoint" />
          </mxGeometry>
        </mxCell>
        <mxCell id="eS1aWTDM6hAk5lM-BrTF-8" value="" style="endArrow=none;html=1;rounded=0;strokeWidth=2;" edge="1" parent="1">
          <mxGeometry width="50" height="50" relative="1" as="geometry">
            <mxPoint x="80" y="280" as="sourcePoint" />
            <mxPoint x="80" y="240" as="targetPoint" />
          </mxGeometry>
        </mxCell>
        <mxCell id="eS1aWTDM6hAk5lM-BrTF-9" value="" style="endArrow=none;html=1;rounded=0;strokeWidth=2;" edge="1" parent="1">
          <mxGeometry width="50" height="50" relative="1" as="geometry">
            <mxPoint x="180" y="280" as="sourcePoint" />
            <mxPoint x="180" y="240" as="targetPoint" />
          </mxGeometry>
        </mxCell>
        <mxCell id="eS1aWTDM6hAk5lM-BrTF-10" value="" style="endArrow=none;html=1;rounded=0;strokeWidth=2;" edge="1" parent="1">
          <mxGeometry width="50" height="50" relative="1" as="geometry">
            <mxPoint x="170" y="240" as="sourcePoint" />
            <mxPoint x="180" y="240" as="targetPoint" />
          </mxGeometry>
        </mxCell>
        <mxCell id="eS1aWTDM6hAk5lM-BrTF-11" value="" style="pointerEvents=1;verticalLabelPosition=bottom;shadow=0;dashed=0;align=center;html=1;verticalAlign=top;shape=mxgraph.electrical.signal_sources.signal_ground;strokeWidth=2;" vertex="1" parent="1">
          <mxGeometry x="120" y="280" width="20" height="20" as="geometry" />
        </mxCell>
        <mxCell id="eS1aWTDM6hAk5lM-BrTF-12" value="" style="shape=waypoint;sketch=0;fillStyle=solid;size=6;pointerEvents=1;points=[];fillColor=none;resizable=0;rotatable=0;perimeter=centerPerimeter;snapToPoint=1;strokeWidth=2;" vertex="1" parent="1">
          <mxGeometry x="120" y="270" width="20" height="20" as="geometry" />
        </mxCell>
        <mxCell id="eS1aWTDM6hAk5lM-BrTF-13" value="" style="endArrow=none;html=1;rounded=0;strokeWidth=2;" edge="1" parent="1">
          <mxGeometry width="50" height="50" relative="1" as="geometry">
            <mxPoint x="390" y="280" as="sourcePoint" />
            <mxPoint x="490" y="280" as="targetPoint" />
          </mxGeometry>
        </mxCell>
        <mxCell id="eS1aWTDM6hAk5lM-BrTF-14" value="" style="endArrow=none;html=1;rounded=0;strokeWidth=2;" edge="1" parent="1">
          <mxGeometry width="50" height="50" relative="1" as="geometry">
            <mxPoint x="390" y="280" as="sourcePoint" />
            <mxPoint x="390" y="240" as="targetPoint" />
          </mxGeometry>
        </mxCell>
        <mxCell id="eS1aWTDM6hAk5lM-BrTF-15" value="" style="endArrow=none;html=1;rounded=0;strokeWidth=2;" edge="1" parent="1">
          <mxGeometry width="50" height="50" relative="1" as="geometry">
            <mxPoint x="489.96" y="280" as="sourcePoint" />
            <mxPoint x="490" y="260" as="targetPoint" />
          </mxGeometry>
        </mxCell>
        <mxCell id="eS1aWTDM6hAk5lM-BrTF-16" value="" style="endArrow=none;html=1;rounded=0;strokeWidth=2;" edge="1" parent="1">
          <mxGeometry width="50" height="50" relative="1" as="geometry">
            <mxPoint x="390" y="166" as="sourcePoint" />
            <mxPoint x="490" y="166" as="targetPoint" />
          </mxGeometry>
        </mxCell>
        <mxCell id="eS1aWTDM6hAk5lM-BrTF-17" value="" style="endArrow=none;html=1;rounded=0;exitX=0;exitY=0.5;exitDx=0;exitDy=0;exitPerimeter=0;strokeWidth=2;" edge="1" parent="1" source="eS1aWTDM6hAk5lM-BrTF-3">
          <mxGeometry width="50" height="50" relative="1" as="geometry">
            <mxPoint x="340" y="166" as="sourcePoint" />
            <mxPoint x="390" y="166" as="targetPoint" />
          </mxGeometry>
        </mxCell>
        <mxCell id="eS1aWTDM6hAk5lM-BrTF-18" value="" style="pointerEvents=1;verticalLabelPosition=bottom;shadow=0;dashed=0;align=center;html=1;verticalAlign=top;shape=mxgraph.electrical.signal_sources.signal_ground;strokeWidth=2;" vertex="1" parent="1">
          <mxGeometry x="430" y="280" width="20" height="20" as="geometry" />
        </mxCell>
        <mxCell id="eS1aWTDM6hAk5lM-BrTF-19" value="" style="shape=waypoint;sketch=0;fillStyle=solid;size=6;pointerEvents=1;points=[];fillColor=none;resizable=0;rotatable=0;perimeter=centerPerimeter;snapToPoint=1;strokeWidth=2;" vertex="1" parent="1">
          <mxGeometry x="430" y="270" width="20" height="20" as="geometry" />
        </mxCell>
        <mxCell id="eS1aWTDM6hAk5lM-BrTF-20" value="" style="shape=waypoint;sketch=0;fillStyle=solid;size=6;pointerEvents=1;points=[];fillColor=none;resizable=0;rotatable=0;perimeter=centerPerimeter;snapToPoint=1;strokeWidth=2;" vertex="1" parent="1">
          <mxGeometry x="380" y="156" width="20" height="20" as="geometry" />
        </mxCell>
        <mxCell id="eS1aWTDM6hAk5lM-BrTF-21" value="" style="endArrow=none;html=1;rounded=0;exitX=0;exitY=0.5;exitDx=0;exitDy=0;exitPerimeter=0;entryX=1;entryY=0.5;entryDx=0;entryDy=0;entryPerimeter=0;strokeWidth=2;" edge="1" parent="1" source="eS1aWTDM6hAk5lM-BrTF-3" target="eS1aWTDM6hAk5lM-BrTF-4">
          <mxGeometry width="50" height="50" relative="1" as="geometry">
            <mxPoint x="340" y="210" as="sourcePoint" />
            <mxPoint x="390" y="160" as="targetPoint" />
          </mxGeometry>
        </mxCell>
        <mxCell id="eS1aWTDM6hAk5lM-BrTF-22" value="&lt;font size=&quot;1&quot;&gt;&lt;b style=&quot;font-size: 20px;&quot;&gt;g&lt;/b&gt;&lt;/font&gt;" style="text;html=1;align=center;verticalAlign=middle;whiteSpace=wrap;rounded=0;strokeWidth=2;" vertex="1" parent="1">
          <mxGeometry x="90" y="157" width="60" height="30" as="geometry" />
        </mxCell>
        <mxCell id="eS1aWTDM6hAk5lM-BrTF-23" value="&lt;font size=&quot;1&quot;&gt;&lt;b style=&quot;font-size: 20px;&quot;&gt;g&lt;/b&gt;&lt;/font&gt;" style="text;html=1;align=center;verticalAlign=middle;whiteSpace=wrap;rounded=0;" vertex="1" parent="1">
          <mxGeometry x="340" y="40" width="60" height="30" as="geometry" />
        </mxCell>
        <mxCell id="eS1aWTDM6hAk5lM-BrTF-24" value="&lt;font style=&quot;font-size: 16px;&quot;&gt;$$R_s$$&lt;/font&gt;" style="text;html=1;align=center;verticalAlign=middle;whiteSpace=wrap;rounded=0;strokeWidth=2;" vertex="1" parent="1">
          <mxGeometry x="400" y="92" width="60" height="30" as="geometry" />
        </mxCell>
        <mxCell id="eS1aWTDM6hAk5lM-BrTF-25" value="&lt;font style=&quot;font-size: 16px;&quot;&gt;$$C_\text{gate}$$&lt;/font&gt;" style="text;html=1;align=center;verticalAlign=middle;whiteSpace=wrap;rounded=0;strokeWidth=2;" vertex="1" parent="1">
          <mxGeometry x="310" y="201" width="60" height="30" as="geometry" />
        </mxCell>
        <mxCell id="eS1aWTDM6hAk5lM-BrTF-27" value="&lt;font style=&quot;font-size: 16px;&quot;&gt;$$R_p$$&lt;/font&gt;" style="text;html=1;align=center;verticalAlign=middle;whiteSpace=wrap;rounded=0;strokeWidth=2;" vertex="1" parent="1">
          <mxGeometry x="500" y="205" width="60" height="30" as="geometry" />
        </mxCell>
        <mxCell id="eS1aWTDM6hAk5lM-BrTF-28" value="" style="shape=flexArrow;endArrow=classic;html=1;rounded=0;" edge="1" parent="1">
          <mxGeometry width="50" height="50" relative="1" as="geometry">
            <mxPoint x="230" y="201" as="sourcePoint" />
            <mxPoint x="290" y="201" as="targetPoint" />
          </mxGeometry>
        </mxCell>
        <mxCell id="eS1aWTDM6hAk5lM-BrTF-29" value="&lt;font style=&quot;font-size: 16px;&quot;&gt;$$R_p \gg R_s $$&lt;/font&gt;" style="text;html=1;align=center;verticalAlign=middle;whiteSpace=wrap;rounded=0;strokeWidth=2;" vertex="1" parent="1">
          <mxGeometry x="490" y="120" width="60" height="30" as="geometry" />
        </mxCell>
      </root>
    </mxGraphModel>
  </diagram>
</mxfile>
